g tile_lighting
v -0.16470428 -0.20238219 0
v -0.16693902 -0.19706504 0
v -0.16296728 -0.19921309 0.0044044824
v -0.15901989 -0.20140558 0
v -0.16470428 -0.20238219 0
v -0.16296728 -0.19921309 0.0044044824
v -0.16693902 -0.19706504 -0.099999994
v -0.16470428 -0.20238219 -0.099999994
v -0.16296728 -0.19921309 -0.10440448
v -0.16470428 -0.20238219 -0.099999994
v -0.15901989 -0.20140558 -0.099999994
v -0.16296728 -0.19921309 -0.10440448
v -0.088705316 0.272353 0.01
v 0.12056113 0.2704506 0.01
v -0.04227755 0.10109835 0.01
v -0.08968818 0.041139174 0.01
v -0.1897428 0.04326799 0.01
v -0.15105474 -0.17747916 0.01
v 0.0967251 0.09890934 0.01
v -0.088705316 0.272353 -0.11
v -0.04227755 0.10109835 -0.11
v 0.12056113 0.2704506 -0.11
v -0.08968818 0.041139174 -0.11
v -0.1897428 0.04326799 -0.11
v -0.15105474 -0.17747916 -0.11
v 0.0967251 0.09890934 -0.11
v 0.09885769 0.10887699 0
v 0.10191849 0.10117459 0.00765325
v 0.0967251 0.09890934 0.01
v -0.019138515 0.11073521 0
v -0.04227755 0.10109835 0.01
v 0.10191849 0.10117459 0.00765325
v 0.10548144 0.09369122 0
v -0.15901989 -0.20140558 0
v 0.0967251 0.09890934 0.01
v -0.15105474 -0.17747916 0.01
v -0.16296728 -0.19921309 0.0044044824
v -0.10280401 0.03141597 0
v -0.08968818 0.041139174 0.01
v -0.15105474 -0.17747916 0.01
v -0.16693902 -0.19706504 0
v -0.16296728 -0.19921309 0.0044044824
v -0.1897428 0.04326799 0.01
v -0.08968818 0.041139174 0.01
v -0.10280401 0.03141597 0
v -0.18494561 0.033163663 0
v -0.19019085 0.042982668 0.009705206
v -0.10326889 0.26411322 0
v -0.088705316 0.272353 0.01
v -0.1897428 0.04326799 0.01
v -0.19687027 0.05188832 0
v -0.19019085 0.042982668 0.009705206
v 0.12384703 0.2804211 0
v 0.12670366 0.2730328 0.0073620314
v 0.12056113 0.2704506 0.01
v -0.075198874 0.28223065 0
v -0.088705316 0.272353 0.01
v 0.12670366 0.2730328 0.0073620314
v 0.12998404 0.26582265 0
v -0.019138515 0.11073521 0
v 0.12056113 0.2704506 0.01
v -0.04227755 0.10109835 0.01
v 0.0967251 0.09890934 -0.11
v 0.10191849 0.10117459 -0.107653245
v 0.09885769 0.10887699 -0.099999994
v -0.019138515 0.11073521 -0.099999994
v -0.04227755 0.10109835 -0.11
v -0.15901989 -0.20140558 -0.099999994
v 0.10548144 0.09369122 -0.099999994
v 0.10191849 0.10117459 -0.107653245
v 0.0967251 0.09890934 -0.11
v -0.15105474 -0.17747916 -0.11
v -0.16296728 -0.19921309 -0.10440448
v -0.15105474 -0.17747916 -0.11
v -0.08968818 0.041139174 -0.11
v -0.10280401 0.03141597 -0.099999994
v -0.16693902 -0.19706504 -0.099999994
v -0.16296728 -0.19921309 -0.10440448
v -0.10280401 0.03141597 -0.099999994
v -0.08968818 0.041139174 -0.11
v -0.1897428 0.04326799 -0.11
v -0.18494561 0.033163663 -0.099999994
v -0.19019085 0.042982668 -0.10970521
v -0.1897428 0.04326799 -0.11
v -0.088705316 0.272353 -0.11
v -0.10326889 0.26411322 -0.099999994
v -0.19687027 0.05188832 -0.099999994
v -0.19019085 0.042982668 -0.10970521
v 0.12056113 0.2704506 -0.11
v 0.12670366 0.2730328 -0.10736203
v 0.12384703 0.2804211 -0.099999994
v -0.075198874 0.28223065 -0.099999994
v -0.088705316 0.272353 -0.11
v -0.019138515 0.11073521 -0.099999994
v 0.12998404 0.26582265 -0.099999994
v 0.12670366 0.2730328 -0.10736203
v 0.12056113 0.2704506 -0.11
v -0.04227755 0.10109835 -0.11
v -0.19591646 0.03933636 -0.099999994
v -0.18494561 0.033163663 -0.099999994
v -0.19019085 0.042982668 -0.10970521
v -0.19687027 0.05188832 -0.099999994
v -0.19591646 0.03933636 0
v -0.19687027 0.05188832 0
v -0.19019085 0.042982668 0.009705206
v -0.18494561 0.033163663 0
v 0.12384703 0.2804211 -0.099999994
v 0.12384703 0.2804211 0
v -0.075198874 0.28223065 0
v -0.075198874 0.28223065 -0.099999994
v -0.10326889 0.26411322 -0.099999994
v -0.10326889 0.26411322 0
v -0.19687027 0.05188832 0
v -0.19687027 0.05188832 -0.099999994
v -0.18494561 0.033163663 -0.099999994
v -0.18494561 0.033163663 0
v -0.10280401 0.03141597 0
v -0.10280401 0.03141597 -0.099999994
v -0.10280401 0.03141597 -0.099999994
v -0.10280401 0.03141597 0
v -0.16693902 -0.19706504 0
v -0.16693902 -0.19706504 -0.099999994
v -0.15901989 -0.20140558 -0.099999994
v -0.15901989 -0.20140558 0
v 0.10548144 0.09369122 0
v 0.10548144 0.09369122 -0.099999994
v 0.09885769 0.10887699 -0.099999994
v 0.09885769 0.10887699 0
v -0.019138515 0.11073521 0
v -0.019138515 0.11073521 -0.099999994
v -0.019138515 0.11073521 -0.099999994
v -0.019138515 0.11073521 0
v 0.12998404 0.26582265 0
v 0.12998404 0.26582265 -0.099999994
v 0.12384703 0.2804211 0
v 0.13171734 0.2751405 0
v 0.12670366 0.2730328 0.0073620314
v 0.12998404 0.26582265 0
v -0.10326889 0.26411322 0
v -0.09194823 0.27737734 0
v -0.088705316 0.272353 0.01
v -0.075198874 0.28223065 0
v 0.09885769 0.10887699 0
v 0.10705646 0.103415675 0
v 0.10191849 0.10117459 0.00765325
v 0.10548144 0.09369122 0
v 0.12998404 0.26582265 -0.099999994
v 0.13171734 0.2751405 -0.099999994
v 0.12670366 0.2730328 -0.10736203
v 0.12384703 0.2804211 -0.099999994
v -0.075198874 0.28223065 -0.099999994
v -0.09194823 0.27737734 -0.099999994
v -0.088705316 0.272353 -0.11
v -0.10326889 0.26411322 -0.099999994
v 0.10548144 0.09369122 -0.099999994
v 0.10705646 0.103415675 -0.099999994
v 0.10191849 0.10117459 -0.107653245
v 0.09885769 0.10887699 -0.099999994
v -0.09194823 0.27737734 0
v -0.10326889 0.26411322 0
v -0.10326889 0.26411322 -0.099999994
v -0.09194823 0.27737734 -0.099999994
v 0.13171734 0.2751405 -0.099999994
v 0.12998404 0.26582265 -0.099999994
v 0.12998404 0.26582265 0
v 0.13171734 0.2751405 0
v -0.19591646 0.03933636 0
v -0.18494561 0.033163663 0
v -0.18494561 0.033163663 -0.099999994
v -0.19591646 0.03933636 -0.099999994
v -0.19687027 0.05188832 -0.099999994
v -0.19687027 0.05188832 0
v -0.16470428 -0.20238219 0
v -0.15901989 -0.20140558 0
v -0.15901989 -0.20140558 -0.099999994
v -0.16470428 -0.20238219 -0.099999994
v 0.10705646 0.103415675 0
v 0.09885769 0.10887699 0
v 0.09885769 0.10887699 -0.099999994
v 0.10705646 0.103415675 -0.099999994
v -0.09194823 0.27737734 0
v -0.09194823 0.27737734 -0.099999994
v -0.075198874 0.28223065 -0.099999994
v -0.075198874 0.28223065 0
v 0.13171734 0.2751405 -0.099999994
v 0.13171734 0.2751405 0
v 0.12384703 0.2804211 0
v 0.12384703 0.2804211 -0.099999994
v -0.16470428 -0.20238219 0
v -0.16470428 -0.20238219 -0.099999994
v -0.16693902 -0.19706504 -0.099999994
v -0.16693902 -0.19706504 0
v 0.10705646 0.103415675 0
v 0.10705646 0.103415675 -0.099999994
v 0.10548144 0.09369122 -0.099999994
v 0.10548144 0.09369122 0
vt 0.5181637 1
vt 0.5062584 1
vt 0.50908494 1.1293774
vt 0.530069 1
vt 0.5181637 1
vt 0.50908494 1.1293774
vt 0.5062584 0
vt 0.51816374 0
vt 0.5068506 -0.06228876
vt 0.51816374 0
vt 0.530069 0
vt 0.5068506 -0.06228876
vt 0.23306201 0.97983
vt 0.652658 0.9760155
vt 0.3261534 0.63645077
vt 0.23109129 0.51622784
vt 0.03047377 0.5204963
vt 0.10804646 0.07788062
vt 0.60486484 0.63206166
vt 0.23306201 0.97983
vt 0.3261534 0.63645077
vt 0.652658 0.9760155
vt 0.23109129 0.51622784
vt 0.03047377 0.5204963
vt 0.10804646 0.07788062
vt 0.60486484 0.63206166
vt 0.6091408 0.6520476
vt 0.615278 0.6366037
vt 0.60486484 0.63206166
vt 0.37254903 0.65577346
vt 0.3261534 0.63645077
vt 0.615278 0.6366037
vt 0.622422 0.6215989
vt 0.0920757 0.029906273
vt 0.60486484 0.63206166
vt 0.10804646 0.07788062
vt 0.08416088 0.034302473
vt 0.20479302 0.496732
vt 0.23109129 0.51622784
vt 0.10804646 0.07788062
vt 0.07619719 0.038609385
vt 0.08416088 0.034302473
vt 0.03047377 0.5204963
vt 0.23109129 0.51622784
vt 0.20479302 0.496732
vt 0.04009252 0.5002363
vt 0.029575426 0.5199242
vt 0.20386091 0.9633086
vt 0.23306201 0.97983
vt 0.03047377 0.5204963
vt 0.016182672 0.53778076
vt 0.029575426 0.5199242
vt 0.65924644 0.99600726
vt 0.6649743 0.9811931
vt 0.652658 0.9760155
vt 0.26014352 0.99963546
vt 0.23306201 0.97983
vt 0.6649743 0.9811931
vt 0.6715516 0.96673614
vt 0.37254903 0.65577346
vt 0.652658 0.9760155
vt 0.3261534 0.63645077
vt 0.60486484 0.63206166
vt 0.615278 0.6366037
vt 0.6091408 0.6520476
vt 0.37254903 0.65577346
vt 0.3261534 0.63645077
vt 0.0920757 0.029906273
vt 0.622422 0.6215989
vt 0.615278 0.6366037
vt 0.60486484 0.63206166
vt 0.10804646 0.07788062
vt 0.08416088 0.034302473
vt 0.10804646 0.07788062
vt 0.23109129 0.51622784
vt 0.20479302 0.496732
vt 0.07619719 0.038609385
vt 0.08416088 0.034302473
vt 0.20479302 0.496732
vt 0.23109129 0.51622784
vt 0.03047377 0.5204963
vt 0.04009252 0.5002363
vt 0.029575424 0.5199242
vt 0.03047377 0.5204963
vt 0.23306201 0.97983
vt 0.20386091 0.9633086
vt 0.016182672 0.53778076
vt 0.029575424 0.5199242
vt 0.652658 0.9760155
vt 0.6649743 0.9811931
vt 0.65924644 0.99600726
vt 0.26014352 0.99963546
vt 0.23306201 0.97983
vt 0.37254903 0.65577346
vt 0.6715516 0.96673614
vt 0.6649743 0.9811931
vt 0.652658 0.9760155
vt 0.3261534 0.63645077
vt 0.30418265 0
vt 0.31608793 0
vt 0.2955233 -0.13725233
vt 0.29227734 0
vt 0.30418265 1
vt 0.29227734 1
vt 0.30070105 1.1912568
vt 0.31608796 1
vt 0.0119052995 0
vt 0.0119052995 1
vt 0.13039526 1
vt 0.13039526 0
vt 0.15420587 0
vt 0.15420587 1
vt 0.29227734 1
vt 0.29227734 0
vt 0.31608793 0
vt 0.31608796 1
vt 0.36499506 1
vt 0.36499506 0
vt 0.36499506 0
vt 0.36499506 1
vt 0.5062584 1
vt 0.5062584 0
vt 0.530069 0
vt 0.530069 1
vt 0.765965 1
vt 0.765965 0
vt 0.7897755 0
vt 0.7897755 1
vt 0.86002326 1
vt 0.86002326 0
vt 0.86002326 0
vt 0.86002326 1
vt 0.9880947 1
vt 0.9880947 0
vt 0.0119052995 1
vt 0 1
vt 0.01016494 1.1041149
vt -0.0119052995 1
vt 0.15420587 1
vt 0.14230058 1
vt 0.14140338 1.1552663
vt 0.13039526 1
vt 0.7897755 1
vt 0.77787024 1
vt 0.7723946 1.1775901
vt 0.765965 1
vt -0.0119052995 0
vt 0 0
vt 0.005786088 -0.17479062
vt 0.0119052995 0
vt 0.13039526 0
vt 0.14230058 0
vt 0.13838139 -0.14142132
vt 0.15420587 0
vt 0.765965 0
vt 0.77787024 0
vt 0.76785886 -0.10823321
vt 0.7897755 0
vt 0.14230058 1
vt 0.15420587 1
vt 0.15420587 0
vt 0.14230058 0
vt 0 0
vt -0.0119052995 0
vt -0.0119052995 1
vt 0 1
vt 0.30418265 1
vt 0.31608796 1
vt 0.31608793 0
vt 0.30418265 0
vt 0.29227734 0
vt 0.29227734 1
vt 0.5181637 1
vt 0.530069 1
vt 0.530069 0
vt 0.51816374 0
vt 0.77787024 1
vt 0.7897755 1
vt 0.7897755 0
vt 0.77787024 0
vt 0.14230058 1
vt 0.14230058 0
vt 0.13039526 0
vt 0.13039526 1
vt 0 0
vt 0 1
vt 0.0119052995 1
vt 0.0119052995 0
vt 0.5181637 1
vt 0.51816374 0
vt 0.5062584 0
vt 0.5062584 1
vt 0.77787024 1
vt 0.77787024 0
vt 0.765965 0
vt 0.765965 1
vn -0.8845723 -0.37177664 0.2816274
vn -0.8845723 -0.37177664 0.2816274
vn -0.77564967 -0.32599762 0.5404564
vn 0.16247256 -0.94566816 0.28162813
vn 0.16247256 -0.94566816 0.28162813
vn 0.14246623 -0.82922184 0.54045767
vn -0.8845722 -0.37177658 -0.28162757
vn -0.8845722 -0.37177658 -0.28162757
vn -0.7756495 -0.3259975 -0.5404568
vn 0.16247152 -0.9456683 -0.28162828
vn 0.16247152 -0.9456683 -0.28162828
vn 0.14246422 -0.829222 -0.5404579
vn -0 0 1
vn -0 0 1
vn -0 0 1
vn -0 0 1
vn -0 0 1
vn -0 0 1
vn -0 0 1
vn -0 0 -1
vn -0 0 -1
vn -0 0 -1
vn -0 0 -1
vn -0 0 -1
vn -0 0 -1
vn -0 0 -1
vn 0.0111342585 0.70701915 0.70710665
vn 0.011134342 0.7070193 0.7071066
vn 0.0111342585 0.70701915 0.70710665
vn 0.0111341765 0.7070191 0.70710677
vn 0.0111341765 0.7070191 0.70710677
vn 0.5257636 -0.47283444 0.70710695
vn 0.5258734 -0.47216457 0.7074728
vn 0.5266581 -0.47128937 0.70747274
vn 0.5258734 -0.47216457 0.7074728
vn 0.5266581 -0.47128937 0.70747274
vn 0.5273328 -0.471084 0.7071067
vn -0.6807941 0.1911001 0.7071068
vn -0.6807941 0.1911001 0.7071068
vn -0.6807944 0.19110043 0.7071064
vn -0.6807944 0.19110043 0.7071064
vn -0.68079466 0.19110076 0.70710605
vn -0.015042759 -0.7069472 0.70710635
vn -0.015041417 -0.7069468 0.70710677
vn -0.015041417 -0.7069468 0.70710677
vn -0.015042759 -0.7069472 0.70710635
vn -0.0150441 -0.70694757 0.7071059
vn -0.64697486 0.28534704 0.70710707
vn -0.64697486 0.28534704 0.70710707
vn -0.6469743 0.2853478 0.7071073
vn -0.6469743 0.2853478 0.7071073
vn -0.6469737 0.2853486 0.70710754
vn 0.0064285225 0.70707756 0.70710665
vn 0.00642907 0.7070777 0.7071066
vn 0.0064285225 0.70707756 0.70710665
vn 0.0064279763 0.70707744 0.7071068
vn 0.0064279763 0.70707744 0.7071068
vn 0.5097053 -0.49010256 0.70710665
vn 0.50970566 -0.49010223 0.70710677
vn 0.50970584 -0.49010187 0.7071068
vn 0.50970566 -0.49010223 0.70710677
vn 0.50970584 -0.49010187 0.7071068
vn 0.011134584 0.7070191 -0.70710677
vn 0.011134995 0.70701915 -0.7071067
vn 0.011134584 0.7070191 -0.70710677
vn 0.0111341765 0.7070191 -0.7071068
vn 0.0111341765 0.7070191 -0.7071068
vn 0.5266578 -0.47128928 -0.7074729
vn 0.5258736 -0.4721643 -0.7074729
vn 0.5257639 -0.47283396 -0.707107
vn 0.5258736 -0.4721643 -0.7074729
vn 0.5266578 -0.47128928 -0.7074729
vn 0.5273323 -0.47108394 -0.70710707
vn -0.68079424 0.19110022 -0.70710665
vn -0.6807941 0.19110008 -0.7071068
vn -0.6807941 0.19110008 -0.7071068
vn -0.68079424 0.19110022 -0.70710665
vn -0.6807944 0.19110034 -0.7071064
vn -0.015041416 -0.7069468 -0.7071067
vn -0.015041416 -0.7069468 -0.7071067
vn -0.015040945 -0.7069467 -0.7071068
vn -0.015040945 -0.7069467 -0.7071068
vn -0.015040474 -0.70694655 -0.70710695
vn -0.6469733 0.28534925 -0.70710766
vn -0.64697486 0.28534704 -0.70710707
vn -0.64697486 0.28534704 -0.70710707
vn -0.6469733 0.28534925 -0.70710766
vn -0.6469717 0.28535149 -0.70710826
vn 0.0064284825 0.70707756 -0.70710665
vn 0.0064289905 0.7070777 -0.7071066
vn 0.0064284825 0.70707756 -0.70710665
vn 0.006427976 0.70707744 -0.7071068
vn 0.006427976 0.70707744 -0.7071068
vn 0.509706 -0.49010187 -0.70710665
vn 0.5097056 -0.49010226 -0.70710665
vn 0.50970536 -0.49010265 -0.7071066
vn 0.5097056 -0.49010226 -0.70710665
vn 0.509706 -0.49010187 -0.70710665
vn -0.80297726 -0.5113696 -0.30615136
vn -0.41736764 -0.7417946 -0.52492386
vn -0.6911905 -0.44017905 -0.57314754
vn -0.84870225 -0.06449183 -0.524924
vn -0.8029772 -0.5113696 0.3061514
vn -0.8487022 -0.06449183 0.52492416
vn -0.6911904 -0.44017905 0.57314765
vn -0.4173676 -0.7417945 0.524924
vn 0.009090597 0.99995875 0
vn 0.009090597 0.99995875 0
vn 0.009090597 0.99995875 0
vn 0.009090597 0.99995875 0
vn -0.91496116 0.40354186 0
vn -0.91496116 0.40354186 0
vn -0.91496116 0.40354186 0
vn -0.91496116 0.40354186 0
vn -0.021271788 -0.9997738 0
vn -0.021271788 -0.9997738 0
vn -0.021271788 -0.9997738 0
vn -0.021271788 -0.9997738 0
vn -0.9627884 0.27025637 0
vn -0.9627884 0.27025637 0
vn -0.9627884 0.27025637 0
vn -0.9627884 0.27025637 0
vn 0.74465495 -0.6674496 0
vn 0.74465495 -0.6674496 0
vn 0.74465495 -0.6674496 0
vn 0.74465495 -0.6674496 0
vn 0.015746139 0.999876 0
vn 0.015746139 0.999876 0
vn 0.015746139 0.999876 0
vn 0.015746139 0.999876 0
vn 0.72083306 -0.6931088 0
vn 0.72083306 -0.6931088 0
vn 0.72083306 -0.6931088 0
vn 0.72083306 -0.6931088 0
vn 0.47413194 0.7066545 0.5252031
vn 0.7414686 0.3117036 0.59419286
vn 0.7414686 0.3117036 0.59419286
vn 0.83662534 -0.1556295 0.5252024
vn -0.66001225 0.5633062 0.49706137
vn -0.4654201 0.72109264 0.5132344
vn -0.4654201 0.72109264 0.5132344
vn -0.24149518 0.8334328 0.49706113
vn 0.4720368 0.7086429 0.5244106
vn 0.73946977 0.32254285 0.59088963
vn 0.73946977 0.32254285 0.59088963
vn 0.84051234 -0.13613363 0.5244107
vn 0.83662534 -0.15562952 -0.52520233
vn 0.7414686 0.3117036 -0.59419286
vn 0.7414686 0.3117036 -0.59419286
vn 0.47413194 0.7066545 -0.5252031
vn -0.24149518 0.8334328 -0.49706113
vn -0.4654201 0.72109264 -0.5132343
vn -0.4654201 0.72109264 -0.5132343
vn -0.66001225 0.5633062 -0.4970613
vn 0.8405122 -0.13613361 -0.52441096
vn 0.73946965 0.3225428 -0.5908898
vn 0.73946965 0.3225428 -0.5908898
vn 0.47203672 0.70864284 -0.5244107
vn -0.5422906 0.840191 0
vn -0.7606322 0.64918315 0
vn -0.7606322 0.64918315 0
vn -0.5422906 0.840191 0
vn 0.9831346 -0.18288323 0
vn 0.9831346 -0.18288323 0
vn 0.9831346 -0.18288323 0
vn 0.9831346 -0.18288323 0
vn -0.8029772 -0.5113696 0.3061514
vn -0.49035776 -0.87152123 0
vn -0.49035776 -0.87152123 0
vn -0.80297726 -0.5113696 -0.30615136
vn -0.9971253 -0.0757703 0
vn -0.9971253 -0.0757703 0
vn 0.16247256 -0.94566816 0.28162813
vn 0.16247256 -0.94566816 0.28162813
vn 0.16247152 -0.9456683 -0.28162828
vn 0.16247152 -0.9456683 -0.28162828
vn 0.55438155 0.83226264 0
vn 0.55438155 0.83226264 0
vn 0.55438155 0.83226264 0
vn 0.55438155 0.83226264 0
vn -0.5422906 0.840191 0
vn -0.5422906 0.840191 0
vn -0.2783115 0.9604908 0
vn -0.2783115 0.9604908 0
vn 0.55716187 0.83040386 0
vn 0.55716187 0.83040386 0
vn 0.55716187 0.83040386 0
vn 0.55716187 0.83040386 0
vn -0.8845723 -0.37177664 0.2816274
vn -0.8845722 -0.37177658 -0.28162757
vn -0.8845722 -0.37177658 -0.28162757
vn -0.8845723 -0.37177664 0.2816274
vn 0.9871361 -0.15988155 0
vn 0.9871361 -0.15988155 0
vn 0.9871361 -0.15988155 0
vn 0.9871361 -0.15988155 0
g tile_lighting_0
f 3/3/3 2/2/2 1/1/1
f 6/6/6 5/5/5 4/4/4
f 9/9/9 8/8/8 7/7/7
f 12/12/12 11/11/11 10/10/10
f 15/15/15 14/14/14 13/13/13
f 15/15/15 13/13/13 16/16/16
f 16/16/16 13/13/13 17/17/17
f 15/15/15 16/16/16 18/18/18
f 18/18/18 19/19/19 15/15/15
f 22/22/22 21/21/21 20/20/20
f 23/23/23 20/20/20 21/21/21
f 20/20/20 23/23/23 24/24/24
f 25/25/25 23/23/23 21/21/21
f 21/21/21 26/26/26 25/25/25
f 29/29/29 28/28/28 27/27/27
f 27/27/27 30/30/30 29/29/29
f 30/30/30 31/31/31 29/29/29
f 34/34/34 33/33/33 32/32/32
f 32/32/32 35/35/35 34/34/34
f 35/35/35 36/36/36 34/34/34
f 36/36/36 37/37/37 34/34/34
f 40/40/40 39/39/39 38/38/38
f 38/38/38 41/41/41 40/40/40
f 41/41/41 42/42/42 40/40/40
f 45/45/45 44/44/44 43/43/43
f 43/43/43 46/46/46 45/45/45
f 43/43/43 47/47/47 46/46/46
f 50/50/50 49/49/49 48/48/48
f 48/48/48 51/51/51 50/50/50
f 51/51/51 52/52/52 50/50/50
f 55/55/55 54/54/54 53/53/53
f 53/53/53 56/56/56 55/55/55
f 56/56/56 57/57/57 55/55/55
f 60/60/60 59/59/59 58/58/58
f 58/58/58 61/61/61 60/60/60
f 61/61/61 62/62/62 60/60/60
f 65/65/65 64/64/64 63/63/63
f 63/63/63 66/66/66 65/65/65
f 63/63/63 67/67/67 66/66/66
f 70/70/70 69/69/69 68/68/68
f 68/68/68 71/71/71 70/70/70
f 68/68/68 72/72/72 71/71/71
f 68/68/68 73/73/73 72/72/72
f 76/76/76 75/75/75 74/74/74
f 74/74/74 77/77/77 76/76/76
f 74/74/74 78/78/78 77/77/77
f 81/81/81 80/80/80 79/79/79
f 79/79/79 82/82/82 81/81/81
f 82/82/82 83/83/83 81/81/81
f 86/86/86 85/85/85 84/84/84
f 84/84/84 87/87/87 86/86/86
f 84/84/84 88/88/88 87/87/87
f 91/91/91 90/90/90 89/89/89
f 89/89/89 92/92/92 91/91/91
f 89/89/89 93/93/93 92/92/92
f 96/96/96 95/95/95 94/94/94
f 94/94/94 97/97/97 96/96/96
f 94/94/94 98/98/98 97/97/97
f 101/101/101 100/100/100 99/99/99
f 101/101/101 99/99/99 102/102/102
f 105/105/105 104/104/104 103/103/103
f 105/105/105 103/103/103 106/106/106
f 109/109/109 108/108/108 107/107/107
f 110/110/110 109/109/109 107/107/107
f 113/113/113 112/112/112 111/111/111
f 114/114/114 113/113/113 111/111/111
f 117/117/117 116/116/116 115/115/115
f 118/118/118 117/117/117 115/115/115
f 121/121/121 120/120/120 119/119/119
f 122/122/122 121/121/121 119/119/119
f 125/125/125 124/124/124 123/123/123
f 126/126/126 125/125/125 123/123/123
f 129/129/129 128/128/128 127/127/127
f 130/130/130 129/129/129 127/127/127
f 133/133/133 132/132/132 131/131/131
f 134/134/134 133/133/133 131/131/131
f 137/137/137 136/136/136 135/135/135
f 137/137/137 138/138/138 136/136/136
f 141/141/141 140/140/140 139/139/139
f 141/141/141 142/142/142 140/140/140
f 145/145/145 144/144/144 143/143/143
f 145/145/145 146/146/146 144/144/144
f 149/149/149 148/148/148 147/147/147
f 149/149/149 150/150/150 148/148/148
f 153/153/153 152/152/152 151/151/151
f 153/153/153 154/154/154 152/152/152
f 157/157/157 156/156/156 155/155/155
f 157/157/157 158/158/158 156/156/156
f 161/161/161 160/160/160 159/159/159
f 162/162/162 161/161/161 159/159/159
f 165/165/165 164/164/164 163/163/163
f 166/166/166 165/165/165 163/163/163
f 169/169/169 168/168/168 167/167/167
f 170/170/170 169/169/169 167/167/167
f 171/171/171 170/170/170 167/167/167
f 172/172/172 171/171/171 167/167/167
f 175/175/175 174/174/174 173/173/173
f 176/176/176 175/175/175 173/173/173
f 179/179/179 178/178/178 177/177/177
f 180/180/180 179/179/179 177/177/177
f 183/183/183 182/182/182 181/181/181
f 184/184/184 183/183/183 181/181/181
f 187/187/187 186/186/186 185/185/185
f 188/188/188 187/187/187 185/185/185
f 191/191/191 190/190/190 189/189/189
f 192/192/192 191/191/191 189/189/189
f 195/195/195 194/194/194 193/193/193
f 196/196/196 195/195/195 193/193/193
