g tile_diamond
v 0.18048458 0.22087127 0.011593412
v -0.00011216541 0.24730629 -9.2748625E-05
v 0.1805093 0.22085936 -0.011354282
v 0.19317277 0.21299253 0.017757423
v 0.10029511 0.22076942 -0.15063548
v 0.19321097 0.21297613 -0.017484408
v -0.00011216541 0.24730629 -9.2748625E-05
v 0.111976385 0.21288478 -0.15853769
v 0.27479714 0.061978817 -0.14580314
v 0.0804342 0.22075905 -0.16213068
v 0.26399055 0.061961047 -0.16456743
v 0.08146819 0.21286897 -0.1761893
v -0.0803606 0.22072303 -0.1622649
v 0.26399863 0.045608487 -0.1645615
v 0.2748052 0.045626264 -0.14579725
v -0.10011218 0.22072454 -0.15088972
v -0.18069337 0.22077844 -0.01174345
v 0.010937323 0.06178324 -0.3109144
v -0.08136655 0.21283267 -0.17632556
v 0.0070524868 -0.24119459 -0.011858902
v 0.0139472885 -0.24118741 0.000113019
v -0.111767635 0.21283251 -0.15881303
v 0.010945248 0.045430694 -0.310906
v -0.010526446 0.0617677 -0.31094748
v -0.006762897 -0.24120085 -0.011873787
v 0.00013911552 -0.24730635 0.000103492726
v -0.010518446 0.045415152 -0.310939
v -0.013683481 -0.24119994 8.324577E-05
v -0.006788684 -0.24119279 0.012055163
v -0.26375413 0.061696563 -0.16502857
v -0.26374623 0.045344036 -0.16502267
v -0.27481106 0.045452926 0.14582749
v -0.26407418 0.04547072 0.16447063
v -0.274469 0.045346245 -0.14649649
v -0.27481902 0.061805498 0.14582157
v -0.2640821 0.06182325 0.16446474
v -0.19340986 0.21290223 0.017340578
v -0.27447683 0.061698798 -0.14650232
v -0.19337043 0.21288648 -0.017902391
v -0.18071814 0.22079028 0.011204215
v -0.00011216541 0.24730629 -9.2748625E-05
v 0.00013911552 -0.24730635 0.000103492726
v 0.0139472885 -0.24118741 0.000113019
v 0.0070524868 -0.24119459 -0.011858902
v 0.0070267073 -0.24118651 0.012070048
v -0.006788684 -0.24119279 0.012055163
v -0.010986009 0.045648523 0.31087822
v -0.26407418 0.04547072 0.16447063
v -0.010993936 0.062001064 0.31086978
v -0.2640821 0.06182325 0.16446474
v 0.010477753 0.045664076 0.3109114
v 0.26364794 0.04573519 0.16509172
v 0.2744857 0.04573296 0.14636685
v 0.2748052 0.045626264 -0.14579725
v 0.27479714 0.061978817 -0.14580314
v 0.26363996 0.062087733 0.16508576
v 0.27447766 0.062085513 0.14636093
v 0.19321097 0.21297613 -0.017484408
v 0.19317277 0.21299253 0.017757423
v 0.1805093 0.22085936 -0.011354282
v 0.010469798 0.062016625 0.31090286
v 0.11163379 0.21304798 0.1586345
v 0.18048458 0.22087127 0.011593412
v 0.09997053 0.22092526 0.15070158
v -0.08167094 0.21301232 0.1760437
v 0.08109632 0.21304655 0.17622195
v 0.08008488 0.22092672 0.16215402
v -0.1121769 0.21299359 0.15839109
v -0.19340986 0.21290223 0.017340578
v -0.00011216541 0.24730629 -9.2748625E-05
v 0.18048458 0.22087127 0.011593412
v -0.08064335 0.22089066 0.16198076
v -0.10050425 0.22088026 0.1504855
v -0.18071814 0.22079028 0.011204215
vt 0.72522765 0.9295047
vt 0.5 0.97158134
vt 0.7252276 0.9295047
vt 0.7366591 0.9151282
vt 0.61514133 0.9295047
vt 0.7462646 0.9151282
vt 0.5 0.97158134
vt 0.6353937 0.91512823
vt 0.96800673 0.63254726
vt 0.6100864 0.92950475
vt 0.96800673 0.63254726
vt 0.62069565 0.915132
vt 0.38991413 0.9295048
vt 0.96639717 0.6237956
vt 0.96639717 0.6237956
vt 0.38485914 0.9295048
vt 0.2747726 0.9295047
vt 0.7366594 0.6325472
vt 0.39872858 0.91513324
vt 0.5186235 0.05950609
vt 0.5186235 0.059506096
vt 0.3744354 0.9151356
vt 0.73504984 0.62379557
vt 0.73134786 0.6325472
vt 0.5 0.05950608
vt 0.5 0.027861869
vt 0.73134786 0.62379557
vt 0.48137653 0.05950609
vt 0.4813765 0.059506092
vt 0.2686527 0.6325472
vt 0.2686527 0.62379557
vt 0.033602875 0.6237956
vt 0.03360287 0.6237956
vt 0.26495072 0.62379557
vt 0.031993315 0.63254726
vt 0.03199331 0.63254726
vt 0.2537397 0.9151336
vt 0.26334116 0.6325472
vt 0.2633409 0.9151347
vt 0.27477258 0.9295047
vt 0.5 0.97158134
vt 0.5 0.027861869
vt 0.5186235 0.059506096
vt 0.5186235 0.05950609
vt 0.49999997 0.059506096
vt 0.4813765 0.059506092
vt 0.26495025 0.6237957
vt 0.03360287 0.6237956
vt 0.26334068 0.6325473
vt 0.03199331 0.63254726
vt 0.26865223 0.6237957
vt 0.73134726 0.6237957
vt 0.7350493 0.6237957
vt 0.96639717 0.6237956
vt 0.96800673 0.63254726
vt 0.73134726 0.6325473
vt 0.7366588 0.6325473
vt 0.7462646 0.9151282
vt 0.7366591 0.9151282
vt 0.7252276 0.9295047
vt 0.26865223 0.6325473
vt 0.62556666 0.9151301
vt 0.72522765 0.9295047
vt 0.6151412 0.92950475
vt 0.37930575 0.9151353
vt 0.60126764 0.91513014
vt 0.6100862 0.92950475
vt 0.36461273 0.91513366
vt 0.2537397 0.9151336
vt 0.5 0.97158134
vt 0.72522765 0.9295047
vt 0.38991356 0.92950475
vt 0.3848586 0.92950475
vt 0.27477258 0.9295047
vn 0.38919905 0.91767925 0.07992999
vn -0.00023014183 0.9999999 -0.00052945357
vn 0.34542924 0.93497866 -0.080582045
vn 0.6838867 0.7156391 0.14198431
vn 0.24254206 0.9348651 -0.25923082
vn 0.6841331 0.71556705 -0.14115867
vn -0.00023014183 0.9999999 -0.00052945357
vn 0.4650308 0.71530557 -0.521617
vn 0.9099209 0.3126391 -0.2725817
vn 0.10320342 0.9347676 -0.33993918
vn 0.6921276 0.31229267 -0.650717
vn 0.21990761 0.7150742 -0.6635583
vn -0.10296482 0.9347314 -0.3401108
vn 0.66533935 -0.3654476 -0.65097743
vn 0.8971824 -0.36513108 -0.24848168
vn -0.24249403 0.9347003 -0.25986937
vn -0.34586957 0.93474406 -0.08141234
vn 0.21891968 0.31200194 -0.9245156
vn -0.21910003 0.71494865 -0.66396046
vn 0.2870005 -0.82016134 -0.4949405
vn 0.572611 -0.8198267 0.00089731225
vn -0.46452245 0.71479225 -0.5227724
vn 0.2333902 -0.36577764 -0.9009638
vn -0.21716882 0.3117157 -0.9250248
vn -0.2851452 -0.8204726 -0.49549657
vn 0.00059275725 -0.99999976 0.00044080277
vn -0.23086783 -0.36606035 -0.9014986
vn -0.5717526 -0.820426 -0.00033726337
vn -0.28625503 -0.8200727 0.49551883
vn -0.6912407 0.31165573 -0.6519639
vn -0.66373587 -0.3660973 -0.65224797
vn -0.8967796 -0.36589953 0.24880481
vn -0.6649768 -0.3655559 0.651287
vn -0.8962453 -0.3660463 -0.2505085
vn -0.91033393 0.31169957 0.2722782
vn -0.69255126 0.31200218 0.65040547
vn -0.68498516 0.71486324 0.14059086
vn -0.9096482 0.3116415 -0.2746265
vn -0.68460727 0.71478534 -0.14281031
vn -0.34608898 0.9348107 0.07969549
vn -0.00023014183 0.9999999 -0.00052945357
vn 0.00059275725 -0.99999976 0.00044080277
vn 0.572611 -0.8198267 0.00089731225
vn 0.2870005 -0.82016134 -0.4949405
vn 0.28596422 -0.81978476 0.4961628
vn -0.28625503 -0.8200727 0.49551883
vn -0.23301266 -0.3652547 0.90127355
vn -0.6649768 -0.3655559 0.651287
vn -0.21940479 0.31231466 0.92429495
vn -0.69255126 0.31200218 0.65040547
vn 0.2312333 -0.3649678 0.90184796
vn 0.66402644 -0.3649437 0.6525987
vn 0.89661384 -0.36498314 0.2507406
vn 0.8971824 -0.36513108 -0.24848168
vn 0.9099209 0.3126391 -0.2725817
vn 0.6908698 0.31281877 0.6518001
vn 0.9093491 0.31280598 0.27429295
vn 0.6841331 0.71556705 -0.14115867
vn 0.6838867 0.7156391 0.14198431
vn 0.34542924 0.93497866 -0.080582045
vn 0.2167812 0.3126564 0.9247983
vn 0.4640168 0.7156869 0.52199686
vn 0.38919905 0.91767925 0.07992999
vn 0.24201901 0.9351016 0.25886628
vn -0.22052062 0.71526927 0.6631444
vn 0.21862882 0.71557456 0.66344136
vn 0.102537565 0.9350753 0.33929393
vn -0.4657612 0.7151031 0.5212428
vn -0.68498516 0.71486324 0.14059086
vn -0.00023014183 0.9999999 -0.00052945357
vn 0.13928117 0.98699737 0.08023114
vn -0.10374075 0.9350135 0.33909813
vn -0.24313839 0.9349252 0.25845414
vn -0.34608898 0.9348107 0.07969549
g tile_diamond_0
f 3/3/3 2/2/2 1/1/1
f 1/1/1 4/4/4 3/3/3
f 3/3/3 6/6/6 5/5/5
f 5/5/5 7/7/7 3/3/3
f 8/8/8 5/5/5 6/6/6
f 6/6/6 9/9/9 8/8/8
f 10/10/10 7/7/7 5/5/5
f 5/5/5 8/8/8 10/10/10
f 11/11/11 8/8/8 9/9/9
f 12/12/12 10/10/10 8/8/8
f 8/8/8 11/11/11 12/12/12
f 13/13/13 7/7/7 10/10/10
f 10/10/10 12/12/12 13/13/13
f 11/11/11 9/9/9 14/14/14
f 15/15/15 14/14/14 9/9/9
f 16/16/16 7/7/7 13/13/13
f 17/17/17 7/7/7 16/16/16
f 18/18/18 12/12/12 11/11/11
f 11/11/11 14/14/14 18/18/18
f 19/19/19 13/13/13 12/12/12
f 13/13/13 19/19/19 16/16/16
f 12/12/12 18/18/18 19/19/19
f 14/14/14 15/15/15 20/20/20
f 21/21/21 20/20/20 15/15/15
f 22/22/22 16/16/16 19/19/19
f 16/16/16 22/22/22 17/17/17
f 23/23/23 14/14/14 20/20/20
f 23/23/23 18/18/18 14/14/14
f 24/24/24 19/19/19 18/18/18
f 19/19/19 24/24/24 22/22/22
f 20/20/20 25/25/25 23/23/23
f 20/20/20 26/26/26 25/25/25
f 23/23/23 27/27/27 18/18/18
f 24/24/24 18/18/18 27/27/27
f 27/27/27 23/23/23 25/25/25
f 25/25/25 26/26/26 28/28/28
f 28/28/28 26/26/26 29/29/29
f 24/24/24 27/27/27 30/30/30
f 30/30/30 22/22/22 24/24/24
f 31/31/31 27/27/27 25/25/25
f 25/25/25 28/28/28 31/31/31
f 31/31/31 30/30/30 27/27/27
f 28/28/28 29/29/29 32/32/32
f 33/33/33 32/32/32 29/29/29
f 34/34/34 31/31/31 28/28/28
f 31/31/31 34/34/34 30/30/30
f 32/32/32 34/34/34 28/28/28
f 32/32/32 33/33/33 35/35/35
f 32/32/32 35/35/35 34/34/34
f 36/36/36 35/35/35 33/33/33
f 35/35/35 36/36/36 37/37/37
f 38/38/38 30/30/30 34/34/34
f 38/38/38 34/34/34 35/35/35
f 30/30/30 38/38/38 22/22/22
f 35/35/35 37/37/37 38/38/38
f 39/39/39 22/22/22 38/38/38
f 39/39/39 38/38/38 37/37/37
f 39/39/39 17/17/17 22/22/22
f 37/37/37 40/40/40 39/39/39
f 17/17/17 39/39/39 40/40/40
f 40/40/40 41/41/41 17/17/17
f 44/44/44 43/43/43 42/42/42
f 43/43/43 45/45/45 42/42/42
f 45/45/45 46/46/46 42/42/42
f 46/46/46 45/45/45 47/47/47
f 47/47/47 48/48/48 46/46/46
f 47/47/47 49/49/49 48/48/48
f 50/50/50 48/48/48 49/49/49
f 51/51/51 47/47/47 45/45/45
f 47/47/47 51/51/51 49/49/49
f 45/45/45 43/43/43 52/52/52
f 52/52/52 51/51/51 45/45/45
f 53/53/53 52/52/52 43/43/43
f 54/54/54 53/53/53 43/43/43
f 54/54/54 55/55/55 53/53/53
f 52/52/52 56/56/56 51/51/51
f 52/52/52 53/53/53 56/56/56
f 57/57/57 53/53/53 55/55/55
f 57/57/57 56/56/56 53/53/53
f 55/55/55 58/58/58 57/57/57
f 59/59/59 57/57/57 58/58/58
f 57/57/57 59/59/59 56/56/56
f 58/58/58 60/60/60 59/59/59
f 61/61/61 49/49/49 51/51/51
f 61/61/61 51/51/51 56/56/56
f 62/62/62 56/56/56 59/59/59
f 56/56/56 62/62/62 61/61/61
f 59/59/59 63/63/63 62/62/62
f 64/64/64 62/62/62 63/63/63
f 49/49/49 61/61/61 65/65/65
f 49/49/49 65/65/65 50/50/50
f 66/66/66 61/61/61 62/62/62
f 62/62/62 64/64/64 66/66/66
f 66/66/66 65/65/65 61/61/61
f 67/67/67 66/66/66 64/64/64
f 66/66/66 67/67/67 65/65/65
f 68/68/68 50/50/50 65/65/65
f 68/68/68 69/69/69 50/50/50
f 64/64/64 70/70/70 67/67/67
f 71/71/71 70/70/70 64/64/64
f 72/72/72 65/65/65 67/67/67
f 65/65/65 72/72/72 68/68/68
f 67/67/67 70/70/70 72/72/72
f 68/68/68 73/73/73 69/69/69
f 73/73/73 68/68/68 72/72/72
f 72/72/72 70/70/70 73/73/73
f 74/74/74 69/69/69 73/73/73
f 73/73/73 70/70/70 74/74/74
